<?xml version="1.0" encoding="UTF-8" standalone="no"?>
<!-- Created with Inkscape (http://www.inkscape.org/) -->

<svg
   xmlns:dc="http://purl.org/dc/elements/1.1/"
   xmlns:cc="http://creativecommons.org/ns#"
   xmlns:rdf="http://www.w3.org/1999/02/22-rdf-syntax-ns#"
   xmlns:svg="http://www.w3.org/2000/svg"
   xmlns="http://www.w3.org/2000/svg"
   xmlns:sodipodi="http://sodipodi.sourceforge.net/DTD/sodipodi-0.dtd"
   xmlns:inkscape="http://www.inkscape.org/namespaces/inkscape"
   width="2522.9473"
   height="423.35291"
   viewBox="0 0 667.52978 112.01213"
   version="1.1"
   id="svg8"
   inkscape:version="0.92.4 5da689c313, 2019-01-14"
   sodipodi:docname="nentwich.svg">
  <defs
     id="defs2" />
  <sodipodi:namedview
     id="base"
     pagecolor="#ffffff"
     bordercolor="#666666"
     borderopacity="1.0"
     inkscape:pageopacity="0.0"
     inkscape:pageshadow="2"
     inkscape:zoom="0.35"
     inkscape:cx="1254.8487"
     inkscape:cy="147.55271"
     inkscape:document-units="mm"
     inkscape:current-layer="layer1"
     showgrid="false"
     units="px"
     fit-margin-top="0"
     fit-margin-left="0"
     fit-margin-right="0"
     fit-margin-bottom="0"
     inkscape:window-width="1916"
     inkscape:window-height="1040"
     inkscape:window-x="0"
     inkscape:window-y="38"
     inkscape:window-maximized="0" />
  <metadata
     id="metadata5">
    <rdf:RDF>
      <cc:Work
         rdf:about="">
        <dc:format>image/svg+xml</dc:format>
        <dc:type
           rdf:resource="http://purl.org/dc/dcmitype/StillImage" />
        <dc:title />
      </cc:Work>
    </rdf:RDF>
  </metadata>
  <g
     inkscape:label="Ebene 1"
     inkscape:groupmode="layer"
     id="layer1"
     transform="translate(103.3776,-166.92307)">
    <rect
       id="rect3791"
       width="667.52979"
       height="112.01212"
       x="-103.3776"
       y="166.92307"
       style="fill:#ee4957;stroke-width:0.29586065"
       ry="15.119043" />
    <g
       aria-label="Markus Nentwich"
       style="font-style:normal;font-weight:normal;font-size:73.26396179px;line-height:1.25;font-family:sans-serif;letter-spacing:0px;word-spacing:0px;fill:#000000;fill-opacity:1;stroke:none;stroke-width:0.26458329"
       id="text4600">
      <path
         d="m -67.723108,251.06248 h -13.480569 q 0.07326,-9.15799 1.09896,-18.75557 1.025695,-9.59758 2.710766,-18.82884 1.758335,-9.30452 3.88299,-17.36356 h 13.334041 l 12.01529,30.40455 h 0.586112 l 11.64897,-30.40455 h 12.967721 q 2.197919,8.05904 3.88299,17.36356 1.758335,9.23126 2.784031,18.82884 1.025695,9.59758 1.098959,18.75557 h -13.846889 q 0,-5.93438 -0.439584,-12.16181 -0.366319,-6.3007 -1.098959,-12.30835 -0.659376,-6.00764 -1.538543,-11.20938 h -0.586112 l -11.209386,28.35315 h -8.645148 l -11.429178,-28.866 h -0.586111 q -0.805904,5.20174 -1.538543,11.35591 -0.73264,6.15417 -1.172224,12.52814 -0.439584,6.37396 -0.439584,12.30834 z"
         style="font-style:normal;font-variant:normal;font-weight:800;font-stretch:normal;font-family:'Wiener Melange';-inkscape-font-specification:'Wiener Melange Ultra-Bold';fill:#ffffff;stroke-width:0.26458329"
         id="path4602" />
      <path
         d="m 2.9032702,251.6486 q -5.2750053,0 -8.3520917,-2.93056 -3.0770864,-2.93056 -3.0770864,-7.83925 0,-10.40348 13.8468888,-11.64897 l 9.0114671,-0.8059 v -0.36632 q 0,-2.56424 -1.538543,-3.6632 -1.465279,-1.17222 -4.6888935,-1.17222 -3.2236144,0 -6.8135485,0.8059 -3.5899341,0.73264 -5.714589,1.97813 h -0.5128477 l 1.904863,-10.40348 q 6.4472286,-2.63751 13.6270967,-2.63751 16.484392,0 16.484392,16.04481 v 11.42918 q 0,3.07709 0.439583,5.78785 0.512848,2.71077 1.318752,4.24931 v 0.58611 H 16.969951 q -1.09896,-2.49097 -1.318751,-5.49479 h -0.512848 q -1.392015,2.78403 -4.688894,4.4691 -3.296878,1.61181 -7.5461878,1.61181 z m 0.9524315,-11.94203 q 0,3.00382 3.5899341,3.00382 3.0770862,0 4.9819492,-1.75833 1.904863,-1.75834 1.904863,-4.4691 v -0.87917 l -5.9343807,0.51285 q -4.5423656,0.43958 -4.5423656,3.58993 z"
         style="font-style:normal;font-variant:normal;font-weight:800;font-stretch:normal;font-family:'Wiener Melange';-inkscape-font-specification:'Wiener Melange Ultra-Bold';fill:#ffffff;stroke-width:0.26458329"
         id="path4604" />
      <path
         d="m 35.505656,251.06248 v -37.21809 h 11.868762 v 7.25313 h 0.512848 q 2.564239,-8.1323 10.110427,-8.1323 2.197918,0 3.589934,0.87917 v 13.04099 h -0.512848 q -1.978127,-0.80591 -4.322574,-0.80591 -3.88299,0 -6.007645,2.56424 -2.051391,2.56424 -2.051391,6.88681 v 15.53196 z"
         style="font-style:normal;font-variant:normal;font-weight:800;font-stretch:normal;font-family:'Wiener Melange';-inkscape-font-specification:'Wiener Melange Ultra-Bold';fill:#ffffff;stroke-width:0.26458329"
         id="path4606" />
      <path
         d="m 67.595256,251.06248 v -57.14589 h 13.187513 v 31.21045 h 0.512848 l 10.91633,-11.28265 H 107.9637 v 0.58611 l -13.11425,12.89446 q 4.542365,5.56806 7.91251,11.72224 3.4434,6.15417 5.64132,12.01528 H 94.043546 q -1.245487,-3.51667 -3.296878,-7.69271 -2.051391,-4.24931 -4.98195,-8.49862 l -4.981949,4.32257 v 11.86876 z"
         style="font-style:normal;font-variant:normal;font-weight:800;font-stretch:normal;font-family:'Wiener Melange';-inkscape-font-specification:'Wiener Melange Ultra-Bold';fill:#ffffff;stroke-width:0.26458329"
         id="path4608" />
      <path
         d="m 129.57644,251.94165 q -8.49862,0 -13.33404,-4.76216 -4.83542,-4.83542 -4.83542,-13.48056 v -19.85454 h 13.18751 v 20.14759 q 0,3.29688 1.31875,5.05522 1.31876,1.75833 3.6632,1.75833 2.34445,0 3.6632,-1.75833 1.31875,-1.75834 1.31875,-5.05522 v -20.14759 h 13.18752 v 19.85454 q 0,8.64514 -4.83543,13.48056 -4.83542,4.76216 -13.33404,4.76216 z"
         style="font-style:normal;font-variant:normal;font-weight:800;font-stretch:normal;font-family:'Wiener Melange';-inkscape-font-specification:'Wiener Melange Ultra-Bold';fill:#ffffff;stroke-width:0.26458329"
         id="path4610" />
      <path
         d="m 167.23404,251.94165 q -4.24931,0 -7.76598,-0.87917 -3.44341,-0.8059 -5.71459,-1.97812 l 1.68507,-9.9639 h 0.51285 q 2.71076,1.39201 5.34826,2.19792 2.71077,0.73264 5.78786,0.73264 2.19792,0 3.15035,-0.51285 0.95243,-0.51285 0.95243,-1.53854 0,-0.95243 -0.95243,-1.53855 -0.87917,-0.65937 -3.6632,-1.39201 l -2.05139,-0.58611 q -4.68889,-1.39202 -7.47293,-4.10279 -2.71076,-2.78403 -2.71076,-7.25313 0,-5.42153 4.17604,-8.79167 4.24931,-3.37015 11.86877,-3.37015 3.66319,0 6.74028,0.73264 3.15035,0.65938 5.05521,1.68508 l -1.53854,9.52431 h -0.51285 q -1.8316,-0.95243 -4.4691,-1.53854 -2.56424,-0.65938 -4.98195,-0.65938 -1.8316,0 -2.6375,0.51285 -0.8059,0.43958 -0.8059,1.46528 0,0.87917 0.8059,1.53854 0.8059,0.58611 3.73646,1.39202 l 1.8316,0.51284 q 6.00764,1.68508 8.27883,4.54237 2.34444,2.78403 2.34444,6.74028 0,6.22744 -4.76215,9.37779 -4.6889,3.15035 -12.23508,3.15035 z"
         style="font-style:normal;font-variant:normal;font-weight:800;font-stretch:normal;font-family:'Wiener Melange';-inkscape-font-specification:'Wiener Melange Ultra-Bold';fill:#ffffff;stroke-width:0.26458329"
         id="path4612" />
      <path
         d="m 206.79636,251.06248 v -54.94797 h 14.35974 l 21.68613,34.65386 h 0.43959 v -34.65386 h 13.4073 v 54.94797 h -14.35974 l -21.68613,-34.65385 h -0.43958 v 34.65385 z"
         style="font-style:normal;font-variant:normal;font-weight:800;font-stretch:normal;font-family:'Wiener Melange';-inkscape-font-specification:'Wiener Melange Ultra-Bold';fill:#ffffff;stroke-width:0.26458329"
         id="path4614" />
      <path
         d="m 284.01649,251.94165 q -9.15799,0 -14.50626,-5.20174 -5.27501,-5.20174 -5.27501,-14.28647 0,-6.15417 2.49098,-10.47675 2.56424,-4.39584 6.96007,-6.66702 4.46911,-2.34445 10.11043,-2.34445 8.64515,0 13.11425,5.12848 4.54237,5.05522 4.54237,14.433 v 1.97813 l -23.88406,2.34445 q 0.87917,2.6375 3.07709,3.73646 2.27118,1.09896 5.56806,1.09896 3.73646,0 7.17987,-0.87917 3.51667,-0.95243 5.27501,-1.90486 h 0.51284 l -1.90486,10.40348 q -2.19792,0.95243 -5.86112,1.75833 -3.6632,0.87917 -7.39966,0.87917 z m -0.43958,-29.30558 q -2.41771,0 -4.17605,1.46528 -1.68507,1.46528 -2.27118,4.98195 l 12.30835,-1.17223 q -0.51285,-2.78403 -2.05139,-4.02952 -1.53855,-1.24548 -3.80973,-1.24548 z"
         style="font-style:normal;font-variant:normal;font-weight:800;font-stretch:normal;font-family:'Wiener Melange';-inkscape-font-specification:'Wiener Melange Ultra-Bold';fill:#ffffff;stroke-width:0.26458329"
         id="path4616" />
      <path
         d="m 308.04698,251.06248 v -37.21809 h 11.86876 v 6.52049 h 0.51285 q 1.31875,-3.51667 4.32257,-5.42153 3.00382,-1.97813 7.25313,-1.97813 6.3007,0 9.89064,4.24931 3.6632,4.24931 3.6632,11.7955 v 22.05245 h -13.18752 v -20.5139 q 0,-6.44723 -5.275,-6.44723 -2.71077,0 -4.32258,1.90486 -1.53854,1.90486 -1.53854,5.27501 v 19.78126 z"
         style="font-style:normal;font-variant:normal;font-weight:800;font-stretch:normal;font-family:'Wiener Melange';-inkscape-font-specification:'Wiener Melange Ultra-Bold';fill:#ffffff;stroke-width:0.26458329"
         id="path4618" />
      <path
         d="m 349.95384,224.10135 v -10.25696 h 6.3007 v -10.55001 h 13.18752 v 10.55001 h 9.15799 l -1.68507,10.25696 h -7.47292 v 8.57188 q 0,7.91251 6.96007,7.91251 h 2.19792 l -1.68507,10.69654 h -5.4948 q -7.1066,0 -11.13612,-4.17605 -4.02952,-4.17605 -4.02952,-11.64897 v -11.35591 z"
         style="font-style:normal;font-variant:normal;font-weight:800;font-stretch:normal;font-family:'Wiener Melange';-inkscape-font-specification:'Wiener Melange Ultra-Bold';fill:#ffffff;stroke-width:0.26458329"
         id="path4620" />
      <path
         d="M 405.56097,251.06248 H 392.0804 q -3.80973,-7.83924 -6.52049,-17.51008 -2.6375,-9.74411 -3.80973,-19.70801 h 13.33404 q 0.14653,5.4948 1.17223,12.01529 1.09896,6.44723 2.93055,13.11425 h 0.51285 l 7.47293,-24.3969 h 9.15799 l 7.47293,24.3969 h 0.51284 q 1.8316,-6.66702 2.8573,-13.11425 1.02569,-6.52049 1.24549,-12.01529 h 13.11424 q -1.17222,9.9639 -3.88299,19.70801 -2.71076,9.67084 -6.44722,17.51008 h -13.33405 l -5.86111,-18.38925 h -0.51285 z"
         style="font-style:normal;font-variant:normal;font-weight:800;font-stretch:normal;font-family:'Wiener Melange';-inkscape-font-specification:'Wiener Melange Ultra-Bold';fill:#ffffff;stroke-width:0.26458329"
         id="path4622" />
      <path
         d="m 453.54878,209.52182 q -3.58993,0 -5.78785,-2.12466 -2.19792,-2.19792 -2.19792,-5.49479 0,-3.29688 2.19792,-5.42154 2.19792,-2.19792 5.78785,-2.19792 3.58994,0 5.78786,2.19792 2.19792,2.12466 2.19792,5.42154 0,3.29687 -2.19792,5.49479 -2.19792,2.12466 -5.78786,2.12466 z m -6.59375,41.54066 v -37.21809 h 13.18751 v 37.21809 z"
         style="font-style:normal;font-variant:normal;font-weight:800;font-stretch:normal;font-family:'Wiener Melange';-inkscape-font-specification:'Wiener Melange Ultra-Bold';fill:#ffffff;stroke-width:0.26458329"
         id="path4624" />
      <path
         d="m 485.85805,251.94165 q -5.71459,0 -10.03716,-2.41771 -4.24931,-2.41771 -6.66702,-6.81355 -2.34445,-4.39583 -2.34445,-10.18369 0,-6.08091 2.49097,-10.47674 2.56424,-4.39584 7.17987,-6.74029 4.61563,-2.34445 10.69654,-2.34445 3.37014,0 6.22744,0.80591 2.93056,0.73264 4.54236,1.75833 l -1.75833,10.40349 h -0.51285 q -1.31875,-0.80591 -3.15035,-1.31876 -1.8316,-0.51284 -3.73646,-0.51284 -3.73646,0 -6.22744,2.19792 -2.41771,2.12465 -2.41771,6.15417 0,3.95625 2.41771,6.15417 2.41771,2.19792 6.59376,2.19792 2.56424,0 4.54236,-0.51285 2.0514,-0.58611 3.29688,-1.31875 h 0.51285 l -1.75833,11.06286 q -1.17223,0.65937 -3.88299,1.24549 -2.71077,0.65937 -6.00765,0.65937 z"
         style="font-style:normal;font-variant:normal;font-weight:800;font-stretch:normal;font-family:'Wiener Melange';-inkscape-font-specification:'Wiener Melange Ultra-Bold';fill:#ffffff;stroke-width:0.26458329"
         id="path4626" />
      <path
         d="m 504.46711,251.06248 v -57.14589 h 13.18752 v 25.49586 h 0.51284 q 1.24549,-3.07708 3.88299,-4.76215 2.63751,-1.68508 6.37397,-1.68508 6.3007,0 9.89063,4.24931 3.6632,4.24931 3.6632,11.7955 v 22.05245 h -13.18751 v -20.5139 q 0,-6.44723 -5.27501,-6.44723 -2.71076,0 -4.32257,1.90486 -1.53854,1.90486 -1.53854,5.27501 v 19.78126 z"
         style="font-style:normal;font-variant:normal;font-weight:800;font-stretch:normal;font-family:'Wiener Melange';-inkscape-font-specification:'Wiener Melange Ultra-Bold';fill:#ffffff;stroke-width:0.26458329"
         id="path4628" />
    </g>
  </g>
</svg>
